<svg width="1002" height="467" viewBox="0 0 1002 467" fill="none" xmlns="http://www.w3.org/2000/svg">
<path d="M239.307 459.87V338.664H0V315.492L245.245 8.31806H292.75V303.015H378.853V338.664H292.75V459.87H239.307ZM45.7237 303.015H239.307V60.0089L45.7237 303.015Z" fill="white"/>
<path d="M445.022 233.5C445.022 169.332 460.263 114.472 490.746 68.9211C521.228 22.9737 562.003 0 613.071 0C647.513 0 677.797 11.0908 703.925 33.2723C730.053 55.4538 749.451 83.9728 762.119 118.83C775.183 153.686 781.715 191.91 781.715 233.5C781.715 274.694 775.183 312.918 762.119 348.17C749.451 383.027 730.053 411.546 703.925 433.728C677.797 455.909 647.513 467 613.071 467C579.026 467 548.939 455.909 522.812 433.728C496.684 411.546 477.088 383.027 464.024 348.17C451.356 312.918 445.022 274.694 445.022 233.5ZM505.591 233.5C505.591 298.856 514.894 350.745 533.5 389.167C552.106 427.588 578.63 446.799 613.071 446.799C647.513 446.799 674.036 427.588 692.642 389.167C711.645 350.745 721.146 298.856 721.146 233.5C721.146 167.748 711.842 115.661 693.236 77.2392C674.63 38.8176 647.908 19.6069 613.071 19.6069C578.63 19.6069 552.106 38.8176 533.5 77.2392C514.894 115.661 505.591 167.748 505.591 233.5Z" fill="white"/>
<path d="M1082.45 459.87V338.664H843.146V315.492L1088.39 8.31806H1135.9V303.015H1222V338.664H1135.9V459.87H1082.45ZM888.87 303.015H1082.45V60.0089L888.87 303.015Z" fill="white"/>
</svg>
