<svg width="211" height="80" viewBox="0 0 211 80" fill="none" xmlns="http://www.w3.org/2000/svg">
<g filter="url(#filter0_i_45_1431)">
<path d="M207.172 26.5277L207.193 26.5825L207.226 26.6309L207.361 26.8302C209.439 31.0521 210.5 35.4908 210.5 40C210.5 44.5203 209.434 48.9696 207.346 53.2008L207.342 53.2082L207.339 53.2157L207.236 53.4438L207.229 53.4579L207.224 53.4723C206.883 54.3681 206.34 55.3173 205.528 56.4365L205.524 56.4426L205.52 56.4489L205.416 56.601L205.416 56.6009L205.409 56.6126C205 57.2515 204.594 57.8475 204.14 58.4415L204.132 58.4526L204.124 58.4641L204.02 58.6162L204.018 58.6195C196.519 69.8413 196.075 77.2381 196.075 78.6692V79.5H14.9251V78.6692C14.9251 77.2364 14.4287 69.8404 6.98285 58.6209L6.98288 58.6208L6.97973 58.6162L6.87633 58.4641L6.86847 58.4526L6.85999 58.4415C6.52055 57.9977 6.21236 57.5374 5.90119 57.0727C5.79616 56.9158 5.69078 56.7584 5.58376 56.601L5.17027 56.8821L5.58376 56.601L5.48035 56.4489C4.70459 55.3079 4.11513 54.3623 3.77625 53.4723L3.77076 53.4578L3.76438 53.4438L3.66097 53.2156L3.65759 53.2082L3.65397 53.2008C1.5664 48.9696 0.5 44.5203 0.5 40C0.5 35.4797 1.5664 31.0304 3.65397 26.7992L3.65759 26.7918L3.66097 26.7844L3.76438 26.5562L3.77076 26.5422L3.77625 26.5277C4.11732 25.6319 4.65996 24.6827 5.47163 23.5635L5.47609 23.5574L5.48035 23.5511L5.58376 23.399L5.58392 23.3991L5.59143 23.3874C6.00021 22.7486 6.4057 22.1525 6.85999 21.5585L6.86847 21.5474L6.87633 21.5359L6.97973 21.3838L6.97975 21.3838L6.98196 21.3805C14.4813 10.1587 14.9251 2.76189 14.9251 1.3308V0.5H196.023V1.3308C196.023 2.76365 196.52 10.1596 203.965 21.3792L203.969 21.3838L204.072 21.5359L204.08 21.5474L204.088 21.5585C204.428 22.0022 204.736 22.4625 205.047 22.9271C205.152 23.0841 205.257 23.2415 205.365 23.399L205.778 23.1179L205.365 23.399L205.468 23.5511C206.244 24.6921 206.833 25.6377 207.172 26.5277Z" stroke="#B0855E"/>
</g>
<defs>
<filter id="filter0_i_45_1431" x="0" y="0" width="211" height="80" filterUnits="userSpaceOnUse" color-interpolation-filters="sRGB">
<feFlood flood-opacity="0" result="BackgroundImageFix"/>
<feBlend mode="normal" in="SourceGraphic" in2="BackgroundImageFix" result="shape"/>
<feColorMatrix in="SourceAlpha" type="matrix" values="0 0 0 0 0 0 0 0 0 0 0 0 0 0 0 0 0 0 127 0" result="hardAlpha"/>
<feOffset/>
<feGaussianBlur stdDeviation="10.5"/>
<feComposite in2="hardAlpha" operator="arithmetic" k2="-1" k3="1"/>
<feColorMatrix type="matrix" values="0 0 0 0 1 0 0 0 0 1 0 0 0 0 1 0 0 0 0.45 0"/>
<feBlend mode="normal" in2="shape" result="effect1_innerShadow_45_1431"/>
</filter>
</defs>
</svg>
