<svg width="8" height="6" viewBox="0 0 8 6" fill="none" xmlns="http://www.w3.org/2000/svg">
<path d="M7.85681 0.829946L7.15187 0.140023C7.05682 0.0469999 6.938 0.000488281 6.80335 0.000488281C6.6687 0.000488281 6.54988 0.0469999 6.45483 0.140023L3.06474 3.45785L1.55186 1.96948C1.45682 1.87646 1.338 1.82995 1.20335 1.82995C1.0687 1.82995 0.949885 1.87646 0.854835 1.96948L0.149885 2.6594C0.0469144 2.75243 -0.000610352 2.86871 -0.000610352 3.00049C-0.000610352 3.13227 0.0469144 3.24855 0.141964 3.34157L2.01127 5.17103L2.71622 5.86095C2.81127 5.95398 2.93008 6.00049 3.06474 6.00049C3.19939 6.00049 3.3182 5.95398 3.41325 5.86095L4.1182 5.17103L7.85681 1.51212C7.95186 1.41909 7.99939 1.30281 7.99939 1.17103C7.99939 1.03925 7.95186 0.922969 7.85681 0.829946Z" fill="white"/>
</svg>
