<svg width="1437" height="154" viewBox="0 0 1437 154" fill="none" xmlns="http://www.w3.org/2000/svg">
<path d="M135.292 132.448C119.976 146.816 101.256 154 79.1332 154C57.0099 154 38.29 146.816 22.9739 132.448C7.65784 118.08 0 99.5971 0 77C0 54.4029 7.59246 35.9203 22.7776 21.5522C38.0937 7.18406 56.879 0 79.1332 0C101.256 0 119.976 7.18406 135.292 21.5522C150.608 35.9203 158.266 54.4029 158.266 77C158.266 99.5971 150.608 118.08 135.292 132.448ZM79.9186 145.771C95.4965 145.771 108.718 140.22 119.583 129.117C130.579 117.884 136.078 101.883 136.078 81.1145C136.078 58.648 130.579 40.8838 119.583 27.8219C108.718 14.76 94.9726 8.229 78.3475 8.229C62.6387 8.229 49.2862 13.7803 38.2901 24.883C27.4248 35.9856 21.9922 51.9211 21.9922 72.6896C21.9922 95.2867 27.4904 113.116 38.4866 126.178C49.4828 139.24 63.2934 145.771 79.9186 145.771Z" fill="white"/>
<path d="M316.364 151.649V12.3435H259.616V3.13487H392.355V12.3435H335.607V151.649H316.364Z" fill="white"/>
<path d="M553.459 145.771C568.383 145.771 579.641 142.636 587.233 136.366C594.826 129.966 598.622 120.953 598.622 109.328C598.622 87.9067 584.288 77.1959 555.619 77.1959H533.627V69.1628H555.227C565.83 69.1628 574.339 66.6158 580.753 61.5216C587.299 56.4275 590.571 49.2434 590.571 39.9695C590.571 29.7812 587.299 21.944 580.753 16.458C574.339 10.972 565.372 8.229 553.852 8.229C549.401 8.229 545.343 8.68617 541.678 9.60051C536.703 11.0373 532.841 13.9763 530.092 18.4173L511.046 48.5903H505.547L514.58 9.79644C525.969 3.26548 539.845 0 556.208 0C573.619 0 587.037 3.06955 596.462 9.20865C606.018 15.2171 610.796 24.4258 610.796 36.8346C610.796 46.631 607.065 54.6641 599.604 60.9338C592.273 67.0729 582.259 70.8609 569.561 72.2977V72.4936C585.008 72.7549 597.248 75.8897 606.28 81.8982C615.313 87.9067 619.829 96.8541 619.829 108.74C619.829 122.194 614.265 133.101 603.138 141.461C592.142 149.82 576.172 154 555.227 154C536.376 154 521.387 150.735 510.26 144.204L501.227 105.41H506.726L523.613 132.252C527.147 137.999 532.252 141.852 538.929 143.812C543.51 145.118 548.354 145.771 553.459 145.771Z" fill="white"/>
<path d="M769.06 66.028H796.354C818.215 66.028 834.709 69.4241 845.836 76.2163C856.964 83.0085 862.527 92.8049 862.527 105.606C862.527 120.757 856.964 132.252 845.836 140.089C834.709 147.796 818.215 151.649 796.354 151.649H750.013V3.13487H769.06V66.028ZM882.948 151.649V3.13487H901.995V151.649H882.948ZM769.06 142.44H789.285C807.742 142.44 821.03 139.632 829.146 134.015C837.262 128.399 841.32 119.843 841.32 108.349C841.32 86.274 823.91 75.2366 789.088 75.2366H769.06V142.44Z" fill="white"/>
<path d="M1093.89 151.649H1042.64V3.13487H1088.78C1106.84 3.13487 1120.85 5.74725 1130.8 10.972C1140.75 16.0662 1145.72 24.687 1145.72 36.8346C1145.72 46.631 1141.99 54.6641 1134.53 60.9338C1127.2 67.0729 1117.19 70.8609 1104.49 72.2977V72.4936C1120.2 72.7549 1132.63 75.8897 1141.8 81.8982C1151.09 87.9067 1155.74 96.8541 1155.74 108.74C1155.74 122.064 1150.5 132.578 1140.03 140.285C1129.56 147.861 1114.18 151.649 1093.89 151.649ZM1061.68 69.1628H1090.15C1100.76 69.1628 1109.27 66.6158 1115.68 61.5216C1122.23 56.4275 1125.5 49.2434 1125.5 39.9695C1125.5 21.1603 1112.34 11.7557 1086.03 11.7557H1061.68V69.1628ZM1061.68 143.028H1087.99C1119.02 143.028 1134.53 131.795 1134.53 109.328C1134.53 87.9067 1119.87 77.1959 1090.55 77.1959H1061.68V143.028Z" fill="white"/>
<path d="M1304.06 66.028H1331.36C1353.22 66.028 1369.71 69.4241 1380.84 76.2163C1391.97 83.0085 1397.53 92.8049 1397.53 105.606C1397.53 120.757 1391.97 132.252 1380.84 140.089C1369.71 147.796 1353.22 151.649 1331.36 151.649H1285.02V3.13487H1304.06V66.028ZM1417.95 151.649V3.13487H1437V151.649H1417.95ZM1304.06 142.44H1324.29C1342.75 142.44 1356.03 139.632 1364.15 134.015C1372.27 128.399 1376.32 119.843 1376.32 108.349C1376.32 86.274 1358.91 75.2366 1324.09 75.2366H1304.06V142.44Z" fill="white"/>
</svg>
