<svg width="19" height="15" viewBox="0 0 19 15" fill="none" xmlns="http://www.w3.org/2000/svg">
<path d="M17.5967 4.54999L13.9188 0.541951C13.1897 -0.181407 12.0019 -0.181407 11.2682 0.5465C11.0343 0.77852 10.8784 1.05603 10.7958 1.3472C10.0621 0.792169 9.0073 0.846762 8.33317 1.51553C8.09929 1.74755 7.94337 2.02506 7.86082 2.31622C7.12708 1.76119 6.07232 1.81579 5.39819 2.48455C5.1689 2.71202 5.01297 2.98044 4.93043 3.26705L3.19695 1.55192C2.46779 0.828564 1.28463 0.828564 0.550884 1.55647C-0.182862 2.27983 -0.182862 3.45813 0.546298 4.18148L7.20504 10.7872L3.25657 11.4014C2.18805 11.5515 1.38552 12.4751 1.38552 13.5442C1.38552 14.3449 2.04589 15 2.85301 15H12.0799C13.5153 15 14.8681 14.445 15.8862 13.435L17.427 11.9064C18.4405 10.901 19 9.5589 19 8.13493C18.9954 6.81105 18.4956 5.53721 17.5967 4.54999ZM16.73 11.224L15.1891 12.7526C14.3591 13.576 13.2539 14.031 12.0753 14.031H2.85301C2.58244 14.031 2.36232 13.8126 2.36232 13.5442C2.36232 12.9528 2.80715 12.4478 3.40332 12.3613L8.31024 11.597C8.49368 11.5697 8.64043 11.4424 8.70005 11.2695C8.75508 11.0966 8.70922 10.9055 8.58081 10.7781L1.23877 3.49452C0.890241 3.14877 0.890241 2.58919 1.24336 2.23888C1.41762 2.06601 1.64692 1.97957 1.87163 1.97957C2.09634 1.97957 2.32563 2.06601 2.4999 2.23888L7.39306 7.09311C7.58567 7.28419 7.89293 7.28419 8.08553 7.09311C8.18184 6.99757 8.2277 6.87474 8.2277 6.74736C8.2277 6.61997 8.18184 6.49714 8.08553 6.4016L6.08608 4.41805C5.73755 4.0723 5.73755 3.51272 6.09066 3.16242C6.43919 2.81666 7.00326 2.81666 7.35179 3.16242L9.35124 5.14596C9.54385 5.33704 9.85111 5.33704 10.0437 5.14596C10.14 5.05042 10.1859 4.92759 10.1859 4.80021C10.1859 4.67282 10.14 4.54999 10.0437 4.45445L9.02106 3.43993C8.67253 3.09417 8.67253 2.5346 9.02565 2.18429C9.37418 1.83853 9.93824 1.83853 10.2868 2.18429L11.314 3.20336C11.5066 3.38534 11.8093 3.38079 11.9973 3.19426C12.1899 3.00319 12.1899 2.69837 11.9973 2.5073L11.956 2.46635C11.7864 2.29803 11.6946 2.0751 11.6946 1.84308C11.6946 1.61106 11.7864 1.38814 11.9606 1.21526C12.3092 0.869509 12.8732 0.874058 13.2034 1.19707L16.8676 5.19145C17.6059 5.9967 18.0094 7.03852 18.0094 8.12583C18.014 9.30413 17.56 10.4005 16.73 11.224Z" fill="#444442"/>
</svg>
