<svg width="200" height="48" viewBox="0 0 200 48" fill="none" xmlns="http://www.w3.org/2000/svg">
<path d="M56.9759 7.2799V18.7863H56V5.28499H57.8768L63.4884 13.9949L69.0438 5.28499H70.7141V18.7863H68.8936V7.2799L63.3195 15.9186H62.5688L56.9759 7.2799Z" fill="#1C1C1C"/>
<path d="M85.1092 18.7863L82.8382 13.7099H76.6636L74.4114 18.7863H73.3604L79.4225 5.17812H80.9614L87.061 18.7863H85.1092ZM77.0389 12.8728H82.4629L79.7415 6.81679L77.0389 12.8728Z" fill="#1C1C1C"/>
<path d="M96.3569 19C94.0047 19 92.0841 18.3707 90.5951 17.112C89.1187 15.8414 88.3805 14.1374 88.3805 12C88.3805 9.87447 89.1312 8.17642 90.6327 6.90585C92.1341 5.63528 94.0735 5 96.4508 5C98.4151 5 99.9604 5.30874 101.086 5.92621L101.443 9.4173H100.88L99.8665 6.6743C99.7539 6.36556 99.3473 6.13401 98.6466 5.97964C97.9459 5.82528 97.1952 5.74809 96.3945 5.74809C95.5937 5.74809 94.8492 5.85496 94.1611 6.0687C93.4854 6.28244 92.8598 6.61493 92.2843 7.06616C91.7212 7.50551 91.2771 8.11705 90.9517 8.90076C90.6264 9.68448 90.4638 10.6047 90.4638 11.6616C90.4638 13.6565 91.0018 15.2536 92.0778 16.4529C93.1664 17.6522 94.649 18.2519 96.5258 18.2519C97.3266 18.2519 98.0711 18.1747 98.7592 18.0204C99.4474 17.866 99.8478 17.6344 99.9604 17.3257L100.974 14.5827H101.537L101.18 18.0738C100.655 18.3588 99.9354 18.5844 99.022 18.7506C98.1211 18.9169 97.2328 19 96.3569 19Z" fill="#1C1C1C"/>
<path d="M108.693 18.7863V6.12214H103.269V5.28499H115.957V6.12214H110.533V18.7863H108.693Z" fill="#1C1C1C"/>
<path d="M118.534 18.7863V5.28499H127.918V6.12214H120.355V11.3232H126.83V12.1603H120.355V17.9491H127.918V18.7863H118.534Z" fill="#1C1C1C"/>
<path d="M133.175 18.7863H131.354V5.28499H136.159C137.035 5.28499 137.804 5.33842 138.467 5.44529C139.143 5.55216 139.769 5.73622 140.344 5.99746C140.92 6.24682 141.358 6.62087 141.658 7.11959C141.971 7.60645 142.127 8.20017 142.127 8.90076C142.127 11.3944 140.138 12.6412 136.159 12.6412H133.175V18.7863ZM133.175 6.0687V11.8397H136.009C137.322 11.8397 138.33 11.626 139.03 11.1985C139.744 10.771 140.1 10.0288 140.1 8.97201C140.1 7.91518 139.744 7.16709 139.03 6.72774C138.317 6.28838 137.31 6.0687 136.009 6.0687H133.175Z" fill="#1C1C1C"/>
<path d="M152.091 19C149.739 19 147.818 18.3707 146.33 17.112C144.853 15.8414 144.115 14.1374 144.115 12C144.115 9.87447 144.866 8.17642 146.367 6.90585C147.868 5.63528 149.808 5 152.185 5C154.15 5 155.695 5.30874 156.821 5.92621L157.177 9.4173H156.614L155.601 6.6743C155.488 6.36556 155.082 6.13401 154.381 5.97964C153.68 5.82528 152.93 5.74809 152.129 5.74809C151.328 5.74809 150.584 5.85496 149.895 6.0687C149.22 6.28244 148.594 6.61493 148.019 7.06616C147.456 7.50551 147.011 8.11705 146.686 8.90076C146.361 9.68448 146.198 10.6047 146.198 11.6616C146.198 13.6565 146.736 15.2536 147.812 16.4529C148.901 17.6522 150.383 18.2519 152.26 18.2519C153.061 18.2519 153.805 18.1747 154.494 18.0204C155.182 17.866 155.582 17.6344 155.695 17.3257L156.708 14.5827H157.271L156.915 18.0738C156.389 18.3588 155.67 18.5844 154.756 18.7506C153.855 18.9169 152.967 19 152.091 19Z" fill="#1C1C1C"/>
<path d="M160.862 18.7863V5.28499H162.682V11.8931L162.72 11.8575L171.165 5.28499H172.517L164.653 11.4122L173.605 18.7863H171.015L162.682 12V18.7863H160.862Z" fill="#1C1C1C"/>
<path d="M185.682 18.7863L183.411 13.7099H177.237L174.984 18.7863H173.933L179.995 5.17812H181.534L187.634 18.7863H185.682ZM177.612 12.8728H183.036L180.315 6.81679L177.612 12.8728Z" fill="#1C1C1C"/>
<path d="M190.935 18.7863H188.702L194.426 12.4097C193.112 12.2553 192.086 11.8753 191.348 11.2697C190.622 10.6522 190.259 9.83885 190.259 8.82952C190.259 6.4665 192.205 5.28499 196.096 5.28499H200V18.7863H198.179V12.659H196.434L190.935 18.7863ZM198.179 11.8753V6.0687H196.34C193.638 6.0687 192.286 7.03647 192.286 8.97201C192.286 10.9075 193.631 11.8753 196.321 11.8753H198.179Z" fill="#1C1C1C"/>
<path d="M57.8115 29.9712V43H56V29.1099H64.7212V29.9712H57.8115Z" fill="#1C1C1C"/>
<path d="M69.4921 43H67.6806V29.1099H72.4614C73.3329 29.1099 74.0985 29.1649 74.7584 29.2749C75.4307 29.3848 76.0532 29.5742 76.6259 29.8429C77.1986 30.0995 77.6343 30.4843 77.9331 30.9974C78.2444 31.4983 78.4 32.1091 78.4 32.8298C78.4 35.3953 76.4205 36.678 72.4614 36.678H69.4921V43ZM69.4921 29.9162V35.8534H72.312C73.6192 35.8534 74.6214 35.6335 75.3186 35.1937C76.0283 34.7539 76.3831 33.9904 76.3831 32.9031C76.3831 31.8159 76.0283 31.0462 75.3186 30.5942C74.609 30.1422 73.6068 29.9162 72.312 29.9162H69.4921Z" fill="#1C1C1C"/>
<path d="M90.0618 43L87.8021 37.7775H81.6581L79.4171 43H78.3713L84.4033 29H85.9346L92.004 43H90.0618ZM82.0316 36.9162H87.4286L84.7207 30.6859L82.0316 36.9162Z" fill="#1C1C1C"/>
<path d="M94.6163 43V29.1099H96.4277V35.322H104.719V29.1099H106.531V43H104.719V36.1832H96.4277V43H94.6163Z" fill="#1C1C1C"/>
<path d="M112.741 43H110.929V29.1099H112.741V41.4241L121.219 29.1099H123.03V43H121.219V30.6859L112.741 43Z" fill="#1C1C1C"/>
<path d="M130.991 43V29.9712H125.594V29.1099H138.218V29.9712H132.821V43H130.991Z" fill="#1C1C1C"/>
<path d="M149.058 43L146.798 37.7775H140.654L138.413 43H137.367L143.399 29H144.931L151 43H149.058ZM141.028 36.9162H146.425L143.717 30.6859L141.028 36.9162Z" fill="#1C1C1C"/>
<path d="M43.3936 0.948389C43.3936 0.661674 43.4157 0.374959 43.4157 0.0220795C42.9949 0.0220795 42.5075 0.0220795 42.131 0.0220795C31.853 0.308794 23.4578 8.79997 23.4135 19.0555C23.3692 28.1642 23.4135 37.273 23.4135 46.3817C23.4135 46.7125 23.4356 47.0213 23.4578 47.4403C23.8344 47.4624 24.1445 47.5065 24.4767 47.5065C32.1409 47.4624 39.2735 42.5 42.0867 35.3983C43.3271 32.2665 43.5043 29.0464 43.4157 25.7603C43.3936 24.9663 43.4157 24.1723 43.4157 23.3121C40.7133 23.3121 38.2103 23.3121 35.7072 23.3121C35.3307 23.3121 35.0206 23.3121 34.7104 23.3121H32.3181V27.5688H33.4921L34.7104 27.5467C36.1281 27.5247 37.5458 27.5467 38.9413 27.5467C39.6944 33.3692 35.3307 40.9782 27.7329 42.7205C27.6886 42.5 27.6665 42.2794 27.6886 42.0809C27.9101 34.2955 27.6222 26.4881 27.7329 18.7027C27.7994 14.2696 29.7486 10.6305 33.1156 7.78544C34.8212 6.35186 36.7262 5.31528 39.0963 4.78596C39.0963 5.31528 39.0963 5.71227 39.0963 6.0872C39.0963 9.24107 39.1185 12.417 39.0963 15.5708V17.2911H43.4157V15.5708C43.3714 10.7187 43.3936 5.8446 43.3936 0.948389Z" fill="#C49E5E"/>
<path d="M20.113 47.5506C20.1351 42.9852 20.0687 38.0228 20.0687 33.4574C20.0687 33.281 20.0465 29.8625 20.0465 29.3772C20.0687 25.8926 20.0687 22.3858 20.0244 18.9011C19.9136 8.71172 10.2116 0.26466 0 0V0.022055C0 0.066165 0 0.13233 0 0.198495C0.0443018 9.19693 0.0221509 19.2099 0.0221509 28.2304C0.0221509 30.7888 0.420867 33.303 1.48411 35.6409C2.19294 37.1847 3.43339 38.9271 4.23082 40.4268C4.23082 28.7597 4.40802 16.6074 4.40802 4.80799C5.0061 4.98443 5.47127 5.11676 5.91428 5.27114C7.6642 5.93279 7.6642 5.93279 7.6642 7.76336C7.6642 19.3422 7.6642 30.9211 7.6642 42.5C7.6642 42.897 7.6199 43.4483 7.84141 43.6468C8.99326 44.6614 10.278 45.4333 11.9615 45.9847V9.32926L12.6703 10.2556C14.7525 12.9904 15.7493 16.0781 15.7493 19.4966C15.7493 25.7382 15.7493 32.0018 15.7493 38.2434C15.7493 40.9341 15.7271 43.6027 15.7714 46.2934C15.7714 46.6242 15.8822 47.0653 16.3252 47.2638C17.5435 47.4403 18.9833 47.4844 20.113 47.5506Z" fill="#C49E5E"/>
</svg>
