<svg width="9" height="9" viewBox="0 0 9 9" fill="none" xmlns="http://www.w3.org/2000/svg">
<path d="M7.56491 5.40063C7.24994 5.08678 6.84048 5.08678 6.51239 5.40063C6.26566 5.63664 6.02156 5.87014 5.77483 6.10615C5.70659 6.17143 5.65147 6.18398 5.5701 6.14632C5.42049 6.05593 5.24201 5.99065 5.09239 5.89776C4.38108 5.46591 3.78002 4.91605 3.24719 4.29087C2.98734 3.97703 2.75636 3.65063 2.591 3.27151C2.56475 3.19368 2.56475 3.1535 2.633 3.08822C2.89285 2.86477 3.12383 2.63127 3.37055 2.39526C3.71177 2.06886 3.71177 1.68974 3.37055 1.36334C3.16582 1.1675 2.97422 0.984215 2.78261 0.80093C2.57788 0.605091 2.38627 0.409252 2.18154 0.225968C1.86657 -0.0753225 1.45711 -0.0753225 1.12901 0.225968C0.882285 0.461978 0.638182 0.695478 0.391455 0.931489C0.157852 1.15495 0.037113 1.41606 0.00824067 1.71484C-0.0337554 2.19942 0.0896081 2.66893 0.268092 3.12589C0.638182 4.07997 1.19726 4.9035 1.86657 5.6743C2.78261 6.72128 3.87451 7.54481 5.14751 8.13232C5.72234 8.39344 6.31028 8.60184 6.9376 8.64201C7.38906 8.66712 7.77227 8.55162 8.08462 8.22271C8.28935 7.9867 8.53607 7.79086 8.75393 7.56992C9.08202 7.24352 9.08202 6.85184 8.75393 6.538C8.35759 6.15887 7.96125 5.77975 7.56491 5.40063Z" fill="#C49E5E"/>
</svg>
