<svg width="1920" height="154" viewBox="0 0 1920 154" fill="none" xmlns="http://www.w3.org/2000/svg">
<path d="M-21 4.235H97.1991V150.15H78.526V13.2825H-2.32689V150.15H-21V4.235Z" fill="white"/>
<path d="M357.676 131.285C342.66 145.402 324.308 152.46 302.619 152.46C280.93 152.46 262.577 145.402 247.562 131.285C232.546 117.168 225.039 99.0092 225.039 76.8075C225.039 54.6058 232.482 36.4467 247.369 22.33C262.385 8.21333 280.802 1.155 302.619 1.155C324.308 1.155 342.66 8.21333 357.676 22.33C372.691 36.4467 380.199 54.6058 380.199 76.8075C380.199 99.0092 372.691 117.168 357.676 131.285ZM303.389 144.375C318.661 144.375 331.623 138.921 342.275 128.012C353.056 116.976 358.446 101.255 358.446 80.85C358.446 58.7767 353.056 41.3233 342.275 28.49C331.623 15.6567 318.148 9.23999 301.849 9.23999C286.448 9.23999 273.358 14.6942 262.577 25.6025C251.925 36.5108 246.599 52.1675 246.599 72.5725C246.599 94.7742 251.99 112.292 262.77 125.125C273.55 137.958 287.09 144.375 303.389 144.375Z" fill="white"/>
<path d="M526.69 150.15H508.017V4.235H557.299C566.283 4.235 574.175 4.8125 580.977 5.9675C587.908 7.1225 594.325 9.11167 600.228 11.935C606.132 14.63 610.624 18.6725 613.704 24.0625C616.912 29.3242 618.516 35.7408 618.516 43.3125C618.516 70.2625 598.111 83.7375 557.299 83.7375H526.69V150.15ZM526.69 12.705V75.075H555.759C569.235 75.075 579.566 72.765 586.753 68.145C594.068 63.525 597.726 55.5042 597.726 44.0825C597.726 32.6608 594.068 24.5758 586.753 19.8275C579.437 15.0792 569.106 12.705 555.759 12.705H526.69Z" fill="white"/>
<path d="M803.691 154V135.135C780.462 133.852 762.366 128.269 749.404 118.387C736.57 108.506 730.154 95.48 730.154 79.31C730.154 60.9583 736.57 46.5208 749.404 35.9975C762.238 25.3458 780.334 19.3142 803.691 17.9025V0H824.289V17.9025C847.518 19.1858 865.55 24.7683 878.384 34.65C891.346 44.4033 897.827 57.365 897.827 73.535C897.827 91.8866 891.41 106.388 878.576 117.04C865.742 127.563 847.647 133.531 824.289 134.942V154H803.691ZM750.944 73.92C750.944 90.6033 755.308 103.116 764.035 111.457C772.89 119.799 786.109 124.676 803.691 126.087V26.565C786.879 27.4633 773.853 31.57 764.612 38.885C755.5 46.0717 750.944 57.75 750.944 73.92ZM877.036 78.925C877.036 62.2417 872.609 49.7292 863.753 41.3875C855.026 33.0458 841.872 28.1692 824.289 26.7575V126.28C840.973 125.382 853.936 121.275 863.176 113.96C872.416 106.645 877.036 94.9667 877.036 78.925Z" fill="white"/>
<path d="M1147.07 131.285C1132.05 145.402 1113.7 152.46 1092.01 152.46C1070.32 152.46 1051.97 145.402 1036.95 131.285C1021.94 117.168 1014.43 99.0092 1014.43 76.8075C1014.43 54.6058 1021.87 36.4467 1036.76 22.33C1051.78 8.21333 1070.19 1.155 1092.01 1.155C1113.7 1.155 1132.05 8.21333 1147.07 22.33C1162.08 36.4467 1169.59 54.6058 1169.59 76.8075C1169.59 99.0092 1162.08 117.168 1147.07 131.285ZM1092.78 144.375C1108.05 144.375 1121.01 138.921 1131.67 128.012C1142.45 116.976 1147.84 101.255 1147.84 80.85C1147.84 58.7767 1142.45 41.3233 1131.67 28.49C1121.01 15.6567 1107.54 9.23999 1091.24 9.23999C1075.84 9.23999 1062.75 14.6942 1051.97 25.6025C1041.32 36.5108 1035.99 52.1675 1035.99 72.5725C1035.99 94.7742 1041.38 112.292 1052.16 125.125C1062.94 137.958 1076.48 144.375 1092.78 144.375Z" fill="white"/>
<path d="M1303.09 143.027C1298.73 149.316 1293.4 152.46 1287.11 152.46C1284.16 152.46 1281.79 151.754 1279.99 150.342C1278.19 149.059 1277.29 147.198 1277.29 144.76C1277.29 140.268 1280.37 136.547 1286.53 133.595C1296.67 128.718 1302.96 118.259 1305.4 102.217C1307.97 86.1758 1309.25 55.055 1309.25 8.855V4.235H1397.42V150.15H1378.74V13.2825H1319.07C1318.94 53.4508 1317.78 82.7108 1315.6 101.062C1313.55 119.414 1309.38 133.402 1303.09 143.027Z" fill="white"/>
<path d="M1553.89 150.15H1535.22V4.235H1553.89V133.595L1641.29 4.235H1659.97V150.15H1641.29V20.79L1553.89 150.15Z" fill="white"/>
<path d="M1920.48 131.285C1905.46 145.402 1887.11 152.46 1865.42 152.46C1843.73 152.46 1825.38 145.402 1810.36 131.285C1795.35 117.168 1787.84 99.0092 1787.84 76.8075C1787.84 54.6058 1795.28 36.4467 1810.17 22.33C1825.19 8.21333 1843.6 1.155 1865.42 1.155C1887.11 1.155 1905.46 8.21333 1920.48 22.33C1935.49 36.4467 1943 54.6058 1943 76.8075C1943 99.0092 1935.49 117.168 1920.48 131.285ZM1866.19 144.375C1881.46 144.375 1894.42 138.921 1905.08 128.012C1915.86 116.976 1921.25 101.255 1921.25 80.85C1921.25 58.7767 1915.86 41.3233 1905.08 28.49C1894.42 15.6567 1880.95 9.23999 1864.65 9.23999C1849.25 9.23999 1836.16 14.6942 1825.38 25.6025C1814.73 36.5108 1809.4 52.1675 1809.4 72.5725C1809.4 94.7742 1814.79 112.292 1825.57 125.125C1836.35 137.958 1849.89 144.375 1866.19 144.375Z" fill="white"/>
</svg>
